<svg xmlns="http://www.w3.org/2000/svg" xmlns:xlink="http://www.w3.org/1999/xlink" width="1920" zoomAndPan="magnify" viewBox="0 0 1440 809.999993" height="1080" preserveAspectRatio="xMidYMid meet" version="1.0"><defs><clipPath id="c4cedab7de"><path d="M 693.816406 379.605469 L 744.816406 379.605469 L 744.816406 430.605469 L 693.816406 430.605469 Z M 693.816406 379.605469 " clip-rule="nonzero"/></clipPath><clipPath id="2d33e9dd66"><path d="M 619.5 380.441406 L 670.5 380.441406 L 670.5 431.441406 L 619.5 431.441406 Z M 619.5 380.441406 " clip-rule="nonzero"/></clipPath></defs><g clip-path="url(#c4cedab7de)"><path fill="#50af50" d="M 719.203125 379.605469 C 705.242188 379.605469 693.816406 391.03125 693.816406 404.996094 C 693.816406 418.960938 705.242188 430.382812 719.203125 430.382812 C 733.167969 430.382812 744.59375 418.960938 744.59375 404.996094 C 744.59375 391.03125 733.296875 379.605469 719.203125 379.605469 Z M 730.886719 416.292969 C 730.378906 417.054688 729.488281 417.308594 728.726562 416.800781 C 722.757812 413.121094 715.269531 412.355469 706.382812 414.386719 C 705.496094 414.644531 704.734375 414.007812 704.480469 413.246094 C 704.226562 412.355469 704.859375 411.597656 705.621094 411.34375 C 715.269531 409.183594 723.648438 410.074219 730.25 414.136719 C 731.136719 414.515625 731.261719 415.53125 730.886719 416.292969 Z M 733.933594 409.3125 C 733.296875 410.199219 732.152344 410.582031 731.261719 409.945312 C 724.410156 405.757812 714 404.488281 706.003906 407.027344 C 704.988281 407.28125 703.84375 406.773438 703.589844 405.757812 C 703.335938 404.742188 703.84375 403.597656 704.859375 403.34375 C 714.125 400.550781 725.550781 401.949219 733.421875 406.773438 C 734.1875 407.15625 734.566406 408.421875 733.933594 409.3125 Z M 734.1875 402.203125 C 726.058594 397.378906 712.476562 396.871094 704.734375 399.285156 C 703.464844 399.664062 702.195312 398.902344 701.8125 397.757812 C 701.433594 396.488281 702.195312 395.222656 703.335938 394.839844 C 712.347656 392.171875 727.203125 392.679688 736.597656 398.265625 C 737.738281 398.902344 738.117188 400.425781 737.484375 401.566406 C 736.851562 402.457031 735.328125 402.835938 734.1875 402.203125 Z M 734.1875 402.203125 " fill-opacity="1" fill-rule="nonzero"/></g><g clip-path="url(#2d33e9dd66)"><path fill="#ff2386" d="M 670.265625 393.398438 C 670.28125 391.832031 670.113281 390.289062 669.757812 388.761719 C 669.085938 385.992188 667.511719 383.875 665.144531 382.324219 C 663.925781 381.542969 662.601562 381.03125 661.171875 380.789062 C 660.078125 380.601562 658.976562 380.496094 657.863281 380.472656 C 657.78125 380.464844 657.6875 380.449219 657.601562 380.445312 L 632.164062 380.445312 C 631.84375 380.464844 631.523438 380.480469 631.203125 380.5 C 629.621094 380.589844 628.050781 380.757812 626.5625 381.34375 C 623.734375 382.464844 621.695312 384.417969 620.5 387.226562 C 620.09375 388.175781 619.882812 389.183594 619.734375 390.207031 C 619.613281 391.035156 619.546875 391.867188 619.519531 392.703125 C 619.519531 392.769531 619.507812 392.832031 619.5 392.898438 L 619.5 418.761719 C 619.519531 419.054688 619.535156 419.359375 619.558594 419.65625 C 619.664062 421.382812 619.882812 423.09375 620.609375 424.675781 C 621.984375 427.683594 624.285156 429.65625 627.449219 430.605469 C 628.339844 430.871094 629.261719 431 630.1875 431.085938 C 631.359375 431.199219 632.535156 431.214844 633.714844 431.214844 L 657.050781 431.214844 C 658.160156 431.210938 659.269531 431.140625 660.371094 431 C 662.109375 430.777344 663.75 430.261719 665.226562 429.289062 C 667.019531 428.128906 668.34375 426.574219 669.203125 424.617188 C 669.597656 423.730469 669.824219 422.777344 669.988281 421.816406 C 670.226562 420.390625 670.28125 418.945312 670.277344 417.5 C 670.273438 409.460938 670.277344 401.433594 670.269531 393.398438 Z M 656.675781 401.839844 L 656.675781 413.921875 C 656.675781 414.804688 656.550781 415.671875 656.160156 416.476562 C 655.546875 417.722656 654.550781 418.511719 653.222656 418.886719 C 652.480469 419.097656 651.730469 419.21875 650.957031 419.253906 C 648.949219 419.347656 647.207031 417.984375 646.847656 416.003906 C 646.773438 415.574219 646.765625 415.148438 646.832031 414.71875 C 646.894531 414.289062 647.027344 413.878906 647.226562 413.496094 C 647.425781 413.109375 647.679688 412.765625 647.988281 412.460938 C 648.300781 412.15625 648.652344 411.914062 649.042969 411.726562 C 649.726562 411.386719 650.460938 411.195312 651.199219 411.039062 C 651.996094 410.867188 652.800781 410.714844 653.597656 410.53125 C 654.175781 410.398438 654.5625 410.046875 654.675781 409.441406 C 654.703125 409.304688 654.71875 409.167969 654.71875 409.03125 C 654.71875 405.191406 654.71875 401.351562 654.714844 397.515625 C 654.710938 397.382812 654.695312 397.253906 654.660156 397.125 C 654.574219 396.808594 654.339844 396.609375 654.015625 396.628906 C 653.675781 396.652344 653.34375 396.703125 653.011719 396.769531 C 651.402344 397.085938 649.796875 397.410156 648.1875 397.734375 L 643.269531 398.726562 L 640.359375 399.316406 C 640.328125 399.324219 640.292969 399.335938 640.257812 399.34375 C 639.671875 399.507812 639.460938 399.773438 639.433594 400.378906 C 639.429688 400.46875 639.433594 400.5625 639.433594 400.65625 C 639.429688 406.160156 639.433594 411.664062 639.429688 417.167969 C 639.429688 418.058594 639.328125 418.9375 638.972656 419.765625 C 638.386719 421.117188 637.34375 421.964844 635.9375 422.375 C 635.199219 422.585938 634.4375 422.710938 633.664062 422.738281 C 631.632812 422.8125 629.953125 421.46875 629.601562 419.46875 C 629.304688 417.753906 630.089844 415.90625 632.042969 415.082031 C 632.800781 414.761719 633.589844 414.589844 634.386719 414.425781 C 634.996094 414.296875 635.605469 414.179688 636.207031 414.050781 C 637.019531 413.875 637.441406 413.367188 637.476562 412.539062 L 637.476562 412.222656 C 637.476562 405.960938 637.476562 399.691406 637.480469 393.429688 C 637.480469 393.171875 637.507812 392.902344 637.570312 392.648438 C 637.71875 392.042969 638.148438 391.699219 638.726562 391.550781 C 639.265625 391.410156 639.816406 391.316406 640.363281 391.203125 C 641.914062 390.886719 643.464844 390.578125 645.019531 390.261719 L 649.820312 389.289062 C 651.238281 389.007812 652.65625 388.71875 654.074219 388.4375 C 654.539062 388.347656 655.007812 388.25 655.476562 388.214844 C 656.132812 388.160156 656.582031 388.574219 656.648438 389.234375 C 656.664062 389.386719 656.671875 389.546875 656.671875 389.703125 C 656.675781 393.746094 656.675781 397.789062 656.671875 401.832031 Z M 656.675781 401.839844 " fill-opacity="1" fill-rule="nonzero"/></g><path fill="#43a1e5" d="M 807.972656 379.402344 L 779.75 379.402344 C 773.371094 379.402344 768.203125 384.570312 768.203125 390.949219 L 768.203125 419.175781 C 768.203125 425.550781 773.371094 430.722656 779.75 430.722656 L 807.972656 430.722656 C 814.351562 430.722656 819.519531 425.550781 819.519531 419.175781 L 819.519531 390.949219 C 819.519531 384.570312 814.351562 379.402344 807.972656 379.402344 Z M 810.785156 400.257812 C 811.617188 399.898438 812.605469 399.851562 813.441406 400.101562 C 813.785156 400.207031 814.09375 400.351562 814.390625 400.53125 L 814.390625 402.109375 C 813.464844 401.476562 812.402344 401.296875 811.578125 401.738281 C 810.707031 402.214844 810.195312 403.21875 810.21875 404.273438 C 810.207031 405.433594 810.59375 406.507812 811.398438 407.007812 C 812.117188 407.5 813.246094 407.5 814.390625 407.320312 L 814.390625 408.632812 C 813.941406 408.777344 813.464844 408.859375 812.976562 408.910156 C 812.167969 408.96875 811.273438 408.847656 810.476562 408.417969 C 809.667969 408 809.078125 407.273438 808.746094 406.542969 C 808.421875 405.789062 808.308594 405.023438 808.296875 404.292969 C 808.257812 402.742188 809.089844 400.996094 810.785156 400.257812 Z M 805.410156 396.09375 C 806.117188 396.09375 806.691406 396.667969 806.691406 397.378906 C 806.691406 398.085938 806.117188 398.660156 805.410156 398.660156 C 804.699219 398.660156 804.125 398.085938 804.125 397.378906 C 804.125 396.667969 804.699219 396.09375 805.410156 396.09375 Z M 806.371094 399.941406 L 806.371094 408.925781 L 804.445312 408.925781 L 804.445312 399.941406 Z M 796.429688 406.570312 C 797.25 406.90625 798.25 407.253906 799.03125 407.328125 C 799.816406 407.414062 800.675781 407.3125 801.175781 407.039062 C 801.417969 406.890625 801.46875 406.683594 801.46875 406.453125 C 801.46875 406.222656 801.421875 406.089844 801.3125 405.917969 C 801.109375 405.601562 800.546875 405.363281 799.660156 405.152344 C 799.226562 405.027344 798.75 404.902344 798.222656 404.617188 C 797.699219 404.382812 796.628906 403.523438 796.835938 402.0625 C 796.949219 401.28125 797.757812 400.519531 798.890625 400.160156 C 800.210938 399.746094 801.648438 399.949219 802.84375 400.523438 L 802.84375 402.113281 C 801.777344 401.566406 800.507812 401.289062 799.429688 401.648438 C 799.109375 401.746094 798.6875 401.96875 798.6875 402.371094 C 798.6875 403.335938 799.800781 403.519531 800.226562 403.65625 C 800.660156 403.789062 801.136719 403.914062 801.648438 404.175781 C 802.164062 404.425781 803.191406 405.046875 803.191406 406.464844 C 803.191406 407.820312 802.523438 408.320312 801.96875 408.542969 C 800.828125 409.039062 799.816406 408.953125 798.828125 408.816406 C 797.992188 408.667969 797.183594 408.417969 796.429688 407.949219 C 796.429688 407.949219 796.429688 406.570312 796.429688 406.570312 Z M 787.769531 399.945312 L 789.691406 399.941406 L 789.695312 403.046875 C 789.714844 404.0625 789.710938 405.167969 789.699219 406.105469 C 789.65625 406.605469 790.214844 407.191406 790.953125 407.28125 C 791.34375 407.324219 791.636719 407.292969 792.089844 407.101562 C 792.355469 406.996094 792.628906 406.90625 792.898438 406.8125 L 792.898438 399.941406 L 794.824219 399.945312 L 794.824219 408.691406 L 792.898438 408.691406 L 792.898438 408.390625 C 792.847656 408.417969 792.796875 408.449219 792.746094 408.476562 C 792.257812 408.765625 791.472656 408.96875 790.804688 408.914062 C 790.109375 408.871094 789.40625 408.625 788.835938 408.164062 C 788.269531 407.707031 787.839844 406.988281 787.785156 406.203125 C 787.75 405.074219 787.761719 404.105469 787.773438 403.050781 Z M 773.65625 399.941406 L 775.578125 399.941406 L 775.578125 400.824219 C 776.054688 400.652344 776.523438 400.472656 777.003906 400.3125 C 777.6875 400.066406 778.550781 400.117188 779.226562 400.492188 C 779.503906 400.640625 779.75 400.855469 779.964844 401.09375 C 780.6875 400.828125 781.40625 400.558594 782.132812 400.308594 C 782.820312 400.066406 783.679688 400.113281 784.355469 400.492188 C 785.039062 400.859375 785.570312 401.527344 785.757812 402.308594 C 785.808594 402.503906 785.832031 402.703125 785.84375 402.902344 L 785.847656 403.308594 L 785.855469 404.109375 L 785.847656 405.714844 L 785.84375 408.921875 L 783.917969 408.921875 L 783.910156 402.707031 C 783.855469 402.160156 783.246094 401.683594 782.605469 401.859375 C 781.949219 402.03125 781.289062 402.1875 780.632812 402.34375 C 780.675781 402.527344 780.699219 402.714844 780.710938 402.902344 L 780.714844 403.308594 L 780.722656 404.109375 L 780.714844 405.710938 L 780.710938 408.921875 L 778.785156 408.921875 L 778.78125 402.707031 C 778.726562 402.160156 778.113281 401.683594 777.472656 401.859375 C 776.84375 402.023438 776.210938 402.171875 775.578125 402.324219 L 775.578125 408.917969 L 773.65625 408.917969 C 773.65625 408.917969 773.65625 399.941406 773.65625 399.941406 Z M 811.527344 416.523438 C 808.683594 418.535156 805.511719 419.863281 802.179688 420.726562 C 798.851562 421.578125 795.382812 421.898438 791.933594 421.660156 C 788.484375 421.429688 785.117188 420.589844 781.941406 419.359375 C 778.78125 418.089844 775.789062 416.457031 773.144531 414.316406 C 773.007812 414.203125 772.988281 414.003906 773.097656 413.863281 C 773.195312 413.742188 773.367188 413.710938 773.5 413.785156 L 773.519531 413.792969 C 776.402344 415.355469 779.488281 416.550781 782.585938 417.5 C 785.707031 418.386719 788.882812 419.023438 792.078125 419.152344 C 795.265625 419.265625 798.488281 419.015625 801.636719 418.363281 C 804.769531 417.714844 807.929688 416.777344 810.835938 415.4375 L 810.882812 415.414062 C 811.207031 415.265625 811.585938 415.40625 811.734375 415.730469 C 811.867188 416.015625 811.773438 416.347656 811.527344 416.523438 Z M 812.953125 420.320312 C 812.597656 420.589844 812.242188 420.5 812.421875 420.050781 C 812.953125 418.613281 814.113281 415.558594 813.578125 414.839844 C 812.953125 414.03125 809.746094 414.480469 808.320312 414.660156 C 807.875 414.660156 807.875 414.300781 808.234375 414.03125 C 809.480469 413.132812 811.171875 412.773438 812.601562 412.773438 C 814.023438 412.773438 815.273438 413.042969 815.539062 413.492188 C 815.984375 414.03125 815.359375 418.253906 812.953125 420.320312 Z M 812.953125 420.320312 " fill-opacity="1" fill-rule="nonzero"/></svg>